# xmcd CD database file
#
# Track frame offsets:
#	150
#	18450
#	38475
#	56775
#
# Disc length: 1021 seconds
#
# Revision: 1
# Processed by: cddbd v1.5.1PL2 Copyright (c) Steve Scherf et al.
# Submitted via: CDex 1.60beta1-cs1
#
DISCID=2a03fb04
DTITLE=ＭＡＮＡ - 限りないアンサー
DYEAR=1994
DGENRE=Anime
TTITLE0=限りないアンサー
TTITLE1=第２章
TTITLE2=限りないアンサー (Original Karaoke)
TTITLE3=第２章 (Original Karaoke)
EXTD=YEAR: 1994
EXTT0=
EXTT1=
EXTT2=
EXTT3=
PLAYORDER=
